<svg width="22" height="22" viewBox="0 0 22 22" fill="none" xmlns="http://www.w3.org/2000/svg">
<path d="M11.7316 11L8.40032 14.3312L9.91699 15.875L14.792 11L9.91699 6.12496L8.40032 7.66871L11.7316 11ZM11.0003 21.8333C9.50171 21.8333 8.09338 21.5489 6.77532 20.9802C5.45727 20.4114 4.31074 19.6395 3.33574 18.6645C2.36074 17.6895 1.58887 16.543 1.02012 15.225C0.451367 13.9069 0.166992 12.4986 0.166992 11C0.166992 9.50135 0.451367 8.09301 1.02012 6.77496C1.58887 5.4569 2.36074 4.31038 3.33574 3.33538C4.31074 2.36038 5.45727 1.5885 6.77532 1.01975C8.09338 0.451001 9.50171 0.166626 11.0003 0.166626C12.4989 0.166626 13.9073 0.451001 15.2253 1.01975C16.5434 1.5885 17.6899 2.36038 18.6649 3.33538C19.6399 4.31038 20.4118 5.4569 20.9805 6.77496C21.5493 8.09301 21.8337 9.50135 21.8337 11C21.8337 12.4986 21.5493 13.9069 20.9805 15.225C20.4118 16.543 19.6399 17.6895 18.6649 18.6645C17.6899 19.6395 16.5434 20.4114 15.2253 20.9802C13.9073 21.5489 12.4989 21.8333 11.0003 21.8333Z" fill="#ED1C29"/>
</svg>
